<svg xmlns="http://www.w3.org/2000/svg" width="400" height="65.147" viewBox="0 0 400 65.147"><g transform="translate(78.18 16.363)"><path d="M301.349,121.454q5.561,0,8.453,2.612a9.273,9.273,0,0,1,2.891,7.249,10.147,10.147,0,0,1-1.491,5.607,8.826,8.826,0,0,1-4.381,3.445l6.139,11.122a1.134,1.134,0,0,1,.133.5.957.957,0,0,1-.289.7.933.933,0,0,1-.689.293h-3.781a1.775,1.775,0,0,1-1.313-.428,3.124,3.124,0,0,1-.6-.788l-5.828-10.491h-5.917v10.491a1.178,1.178,0,0,1-.355.856,1.148,1.148,0,0,1-.845.361h-3.6a1.144,1.144,0,0,1-.845-.361,1.173,1.173,0,0,1-.356-.856V122.67a1.175,1.175,0,0,1,.356-.855,1.146,1.146,0,0,1,.845-.361Zm-6.674,14.185h6.451a7.875,7.875,0,0,0,4.049-.9q1.512-.9,1.512-3.422t-1.512-3.377a8.219,8.219,0,0,0-4.049-.856h-6.451Z" transform="translate(-288.669 -121.003)" fill="#fff"></path><path d="M345.36,132.841a16.05,16.05,0,0,1,.957-4.75,10.875,10.875,0,0,1,2.424-3.872,11.521,11.521,0,0,1,4-2.612,15.19,15.19,0,0,1,5.694-.968,15.388,15.388,0,0,1,5.651.946,11.106,11.106,0,0,1,4,2.612,11.436,11.436,0,0,1,2.447,3.872,15.53,15.53,0,0,1,.979,4.773q.044.855.067,1.892t.022,2.138q0,1.1-.022,2.139t-.067,1.892a16.1,16.1,0,0,1-.956,4.75,10.875,10.875,0,0,1-2.425,3.872,11.215,11.215,0,0,1-4.026,2.59,17.559,17.559,0,0,1-11.366,0,11.256,11.256,0,0,1-4-2.59,10.861,10.861,0,0,1-2.424-3.872,16.043,16.043,0,0,1-.957-4.75q-.045-.855-.067-1.892t-.022-2.139q0-1.1.022-2.138T345.36,132.841Zm20.153.225a7.129,7.129,0,0,0-2.068-5.021,7.93,7.93,0,0,0-10.01,0,7.125,7.125,0,0,0-2.069,5.021q-.089,1.712-.089,3.8t.089,3.805a7.074,7.074,0,1,0,14.147,0q.088-1.711.089-3.805T365.513,133.066Z" transform="translate(-314.396 -120.638)" fill="#fff"></path><path d="M426.363,142.612a1.292,1.292,0,0,1,1.291-1.17h3.6a1.264,1.264,0,0,1,.867.338,1,1,0,0,1,.334.878,11.624,11.624,0,0,1-.912,3.692,9.634,9.634,0,0,1-2.38,3.332,12.513,12.513,0,0,1-4.048,2.432,16.457,16.457,0,0,1-5.917.945,14.826,14.826,0,0,1-5.428-.923,11.206,11.206,0,0,1-6.562-6.507,16.353,16.353,0,0,1-1.089-5q-.09-1.711-.089-3.782t.089-3.782a16.349,16.349,0,0,1,1.089-5,11.206,11.206,0,0,1,6.562-6.506,14.825,14.825,0,0,1,5.428-.924,16.444,16.444,0,0,1,5.917.946,12.494,12.494,0,0,1,4.048,2.432,9.586,9.586,0,0,1,2.38,3.354,11.806,11.806,0,0,1,.912,3.67,1,1,0,0,1-.334.878,1.264,1.264,0,0,1-.867.338h-3.6a1.408,1.408,0,0,1-.845-.293,1.27,1.27,0,0,1-.489-.878,5,5,0,0,0-.622-1.756,5.393,5.393,0,0,0-1.335-1.531,6.848,6.848,0,0,0-2.136-1.1,9.62,9.62,0,0,0-3.025-.428,7.788,7.788,0,0,0-3.026.541,6.348,6.348,0,0,0-2.157,1.44,6.165,6.165,0,0,0-1.335,2.161,9.312,9.312,0,0,0-.556,2.657q-.09,1.712-.09,3.782t.09,3.782a9.137,9.137,0,0,0,.556,2.679,6.184,6.184,0,0,0,1.335,2.139,6.341,6.341,0,0,0,2.157,1.441,7.788,7.788,0,0,0,3.026.541,9.6,9.6,0,0,0,3.025-.428,7.13,7.13,0,0,0,2.158-1.1,5.244,5.244,0,0,0,1.357-1.531A4.973,4.973,0,0,0,426.363,142.612Z" transform="translate(-342.014 -120.638)" fill="#fff"></path><path d="M491.72,151.083a.96.96,0,0,1,.268.405,1.3,1.3,0,0,1,.044.27,1.177,1.177,0,0,1-.356.856,1.147,1.147,0,0,1-.845.361H486.6a2.07,2.07,0,0,1-1.424-.473c-.356-.315-.564-.5-.622-.563L474.1,140.006v11.752a1.177,1.177,0,0,1-.356.856,1.147,1.147,0,0,1-.846.361h-3.6a1.147,1.147,0,0,1-.846-.361,1.173,1.173,0,0,1-.356-.856V122.67a1.175,1.175,0,0,1,.356-.855,1.149,1.149,0,0,1,.846-.361h3.6a1.149,1.149,0,0,1,.846.361,1.179,1.179,0,0,1,.356.855v10.582l9.7-10.807a3.729,3.729,0,0,1,.845-.72,2.206,2.206,0,0,1,1.157-.271H489.9a1.149,1.149,0,0,1,.845.361,1.179,1.179,0,0,1,.356.855,1.022,1.022,0,0,1-.267.675l-11.968,13.194Z" transform="translate(-370.224 -121.003)" fill="#fff"></path><path d="M544.126,147.346a1.149,1.149,0,0,1,.846.36,1.179,1.179,0,0,1,.356.856v3.2a1.176,1.176,0,0,1-.356.856,1.148,1.148,0,0,1-.846.361H524.6a1.146,1.146,0,0,1-.845-.361,1.172,1.172,0,0,1-.356-.856V122.67a1.175,1.175,0,0,1,.356-.855,1.148,1.148,0,0,1,.845-.361H543.77a1.149,1.149,0,0,1,.845.361,1.177,1.177,0,0,1,.356.855v3.2a1.175,1.175,0,0,1-.356.856,1.149,1.149,0,0,1-.845.36H529.4v7.16h13.391a1.151,1.151,0,0,1,.846.36,1.179,1.179,0,0,1,.356.856v3.2a1.178,1.178,0,0,1-.356.856,1.147,1.147,0,0,1-.846.36H529.4v7.475Z" transform="translate(-395.359 -121.003)" fill="#fff"></path><path d="M596.449,121.454a1.149,1.149,0,0,1,.845.361,1.179,1.179,0,0,1,.356.855v3.2a1.177,1.177,0,0,1-.356.856,1.148,1.148,0,0,1-.845.36h-8.007v24.676a1.175,1.175,0,0,1-.356.856,1.148,1.148,0,0,1-.846.361h-3.6a1.143,1.143,0,0,1-.845-.361,1.172,1.172,0,0,1-.356-.856V127.083h-8.007a1.148,1.148,0,0,1-.846-.36,1.174,1.174,0,0,1-.356-.856v-3.2a1.175,1.175,0,0,1,.356-.855,1.148,1.148,0,0,1,.846-.361Z" transform="translate(-418.009 -121.003)" fill="#fff"></path><path d="M637.519,150.273h15.347a.91.91,0,0,1,1.024,1.036v.675a.891.891,0,0,1-1.024.991H635.695a.871.871,0,0,1-.979-.991V122.445a.871.871,0,0,1,.979-.991h.846a.871.871,0,0,1,.979.991Z" transform="translate(-445.958 -121.003)" fill="#fff"></path><path d="M704.68,150.273a.911.911,0,0,1,1.024,1.036v.675a.891.891,0,0,1-1.024.991H686.974a.87.87,0,0,1-.979-.991V122.49q0-1.036.979-1.036h17.35a.911.911,0,0,1,1.024,1.036v.675a.891.891,0,0,1-1.024.991H688.8v11.483h14.547a.91.91,0,0,1,1.024,1.035v.675a.891.891,0,0,1-1.024.991H688.8v11.933Z" transform="translate(-469.265 -121.003)" fill="#fff"></path><path d="M752.672,122.13a2.045,2.045,0,0,1,.312-.428.852.852,0,0,1,.667-.247h.935a.851.851,0,0,1,.623.271.871.871,0,0,1,.266.63,1.571,1.571,0,0,1-.09.5l-10.32,29.044a1.5,1.5,0,0,1-1.512,1.081h-1.246a1.5,1.5,0,0,1-1.513-1.081l-10.32-29.044a1.576,1.576,0,0,1-.09-.5.868.868,0,0,1,.268-.63.847.847,0,0,1,.622-.271h.934a.853.853,0,0,1,.667.247,2.074,2.074,0,0,1,.311.428l9.743,27.558Z" transform="translate(-489.441 -121.003)" fill="#fff"></path><path d="M809.829,150.273a.91.91,0,0,1,1.024,1.036v.675a.891.891,0,0,1-1.024.991H792.122a.87.87,0,0,1-.978-.991V122.49q0-1.036.978-1.036h17.35a.911.911,0,0,1,1.024,1.036v.675a.891.891,0,0,1-1.024.991H793.947v11.483h14.546a.91.91,0,0,1,1.024,1.035v.675a.891.891,0,0,1-1.024.991H793.947v11.933Z" transform="translate(-517.059 -121.003)" fill="#fff"></path><path d="M846.307,150.273h15.349a.91.91,0,0,1,1.023,1.036v.675a.89.89,0,0,1-1.023.991H844.484a.87.87,0,0,1-.979-.991V122.445a.87.87,0,0,1,.979-.991h.845a.871.871,0,0,1,.979.991Z" transform="translate(-540.859 -121.003)" fill="#fff"></path></g><path d="M162.606,104.988a9.4,9.4,0,0,0-3.444-12.754,9.17,9.17,0,0,0-12.6,3.482A9.406,9.406,0,0,0,150,108.47,9.173,9.173,0,0,0,162.606,104.988Z" transform="translate(-145.344 -91)" fill="#fff"></path><path d="M200.143,131.572A27.354,27.354,0,0,0,189.618,95.4a26.575,26.575,0,0,0-18.582-3.051,17.165,17.165,0,0,1-.011,16.852c-.056.1-.121.192-.181.287a10.757,10.757,0,0,1,10.851-.041,11.09,11.09,0,0,1,4.056,15.035,10.817,10.817,0,0,1-14.851,4.105,11.09,11.09,0,0,1-4.524-14.109,16.734,16.734,0,0,1-16.85,1.892s-1.574,13.683,2.634,25.093A28.053,28.053,0,0,0,169.1,156.516l.649-11.1a26.4,26.4,0,0,0,11.13.443,56.646,56.646,0,0,0,11.77,7.833,38.4,38.4,0,0,0,16.546-15.674l.028-.054C207.188,136.662,203.677,134.331,200.143,131.572Z" transform="translate(-147.115 -91.368)" fill="#fff"></path></svg>