<svg xmlns="http://www.w3.org/2000/svg" viewBox="0 0 1600 1040" role="img" aria-labelledby="title desc">
  <title id="title">Colorful AI systems operations visual</title>
  <desc id="desc">A vivid abstract operations console with connected web, automation, voice, and support system layers.</desc>
  <defs>
    <linearGradient id="bg" x1="0" x2="1" y1="0" y2="1">
      <stop offset="0" stop-color="#07111f"/>
      <stop offset=".38" stop-color="#123b5b"/>
      <stop offset=".72" stop-color="#3b1f73"/>
      <stop offset="1" stop-color="#0b2c31"/>
    </linearGradient>
    <radialGradient id="glowA" cx=".23" cy=".2" r=".45">
      <stop offset="0" stop-color="#23f7d4" stop-opacity=".95"/>
      <stop offset=".54" stop-color="#23f7d4" stop-opacity=".18"/>
      <stop offset="1" stop-color="#23f7d4" stop-opacity="0"/>
    </radialGradient>
    <radialGradient id="glowB" cx=".82" cy=".32" r=".4">
      <stop offset="0" stop-color="#ffcf56" stop-opacity=".9"/>
      <stop offset=".48" stop-color="#ff7a66" stop-opacity=".22"/>
      <stop offset="1" stop-color="#ff7a66" stop-opacity="0"/>
    </radialGradient>
    <radialGradient id="glowC" cx=".7" cy=".84" r=".42">
      <stop offset="0" stop-color="#a9ff68" stop-opacity=".82"/>
      <stop offset=".42" stop-color="#2bdcff" stop-opacity=".18"/>
      <stop offset="1" stop-color="#2bdcff" stop-opacity="0"/>
    </radialGradient>
    <filter id="softShadow" x="-30%" y="-30%" width="160%" height="160%">
      <feDropShadow dx="0" dy="28" stdDeviation="30" flood-color="#000" flood-opacity=".36"/>
    </filter>
    <filter id="blur">
      <feGaussianBlur stdDeviation="30"/>
    </filter>
  </defs>
  <rect width="1600" height="1040" fill="url(#bg)"/>
  <rect width="1600" height="1040" fill="url(#glowA)"/>
  <rect width="1600" height="1040" fill="url(#glowB)"/>
  <rect width="1600" height="1040" fill="url(#glowC)"/>
  <g opacity=".22">
    <path d="M80 188h1440M80 332h1440M80 476h1440M80 620h1440M80 764h1440M80 908h1440M202 72v896M394 72v896M586 72v896M778 72v896M970 72v896M1162 72v896M1354 72v896" stroke="#d8fff4" stroke-width="2"/>
  </g>
  <g filter="url(#blur)" opacity=".55">
    <circle cx="240" cy="220" r="120" fill="#1de2cc"/>
    <circle cx="1300" cy="258" r="150" fill="#ff7a66"/>
    <circle cx="1180" cy="820" r="150" fill="#a9ff68"/>
  </g>
  <g filter="url(#softShadow)">
    <rect x="250" y="190" width="1100" height="650" rx="42" fill="#061313" fill-opacity=".82" stroke="#ffffff" stroke-opacity=".18" stroke-width="2"/>
    <rect x="302" y="254" width="290" height="188" rx="28" fill="#112d37" stroke="#23f7d4" stroke-opacity=".55" stroke-width="3"/>
    <rect x="654" y="254" width="290" height="188" rx="28" fill="#241948" stroke="#b98cff" stroke-opacity=".65" stroke-width="3"/>
    <rect x="1006" y="254" width="290" height="188" rx="28" fill="#34260d" stroke="#ffd166" stroke-opacity=".7" stroke-width="3"/>
    <rect x="302" y="520" width="468" height="248" rx="32" fill="#0d2525" stroke="#a9ff68" stroke-opacity=".48" stroke-width="3"/>
    <rect x="830" y="520" width="466" height="248" rx="32" fill="#29151d" stroke="#ff7a66" stroke-opacity=".52" stroke-width="3"/>
  </g>
  <g fill="none" stroke-linecap="round" stroke-linejoin="round">
    <path d="M592 348h62M944 348h62M536 520V442M1062 520V442M770 640h60" stroke="#f7fbf7" stroke-opacity=".42" stroke-width="8"/>
    <path d="M448 348c88 88 262 88 350 0 86-86 256-86 342 0" stroke="#1de2cc" stroke-opacity=".78" stroke-width="12"/>
    <path d="M438 642c116-92 260-116 432-72 128 32 218 10 300-66" stroke="#ffd166" stroke-opacity=".84" stroke-width="12"/>
    <path d="M520 708c182-42 318-32 470 32" stroke="#a9ff68" stroke-opacity=".8" stroke-width="10"/>
  </g>
  <g>
    <circle cx="448" cy="348" r="42" fill="#1de2cc"/>
    <circle cx="798" cy="348" r="42" fill="#b98cff"/>
    <circle cx="1140" cy="348" r="42" fill="#ffd166"/>
    <circle cx="438" cy="642" r="36" fill="#a9ff68"/>
    <circle cx="1170" cy="504" r="36" fill="#ff7a66"/>
    <circle cx="990" cy="740" r="30" fill="#2bdcff"/>
  </g>
  <g opacity=".8">
    <rect x="350" y="585" width="172" height="14" rx="7" fill="#eafff8"/>
    <rect x="350" y="628" width="282" height="14" rx="7" fill="#1de2cc"/>
    <rect x="350" y="672" width="220" height="14" rx="7" fill="#a9ff68"/>
    <rect x="888" y="585" width="246" height="14" rx="7" fill="#eafff8"/>
    <rect x="888" y="628" width="320" height="14" rx="7" fill="#ff7a66"/>
    <rect x="888" y="672" width="190" height="14" rx="7" fill="#ffd166"/>
  </g>
</svg>
