<svg xmlns="http://www.w3.org/2000/svg" viewBox="0 0 1600 1040" role="img" aria-labelledby="title desc">
  <title id="title">Colorful AI work portfolio visual</title>
  <desc id="desc">Bright product screens, automation routes, and live system signals arranged as a systems lab.</desc>
  <defs>
    <linearGradient id="bg" x1="0" x2="1" y1="0" y2="1">
      <stop offset="0" stop-color="#130b2e"/>
      <stop offset=".42" stop-color="#064257"/>
      <stop offset=".74" stop-color="#392064"/>
      <stop offset="1" stop-color="#10351f"/>
    </linearGradient>
    <radialGradient id="a" cx=".2" cy=".24" r=".52"><stop stop-color="#ff4fd8"/><stop offset=".5" stop-color="#ff4fd8" stop-opacity=".2"/><stop offset="1" stop-color="#ff4fd8" stop-opacity="0"/></radialGradient>
    <radialGradient id="b" cx=".74" cy=".24" r=".42"><stop stop-color="#35f2ff"/><stop offset=".45" stop-color="#35f2ff" stop-opacity=".22"/><stop offset="1" stop-color="#35f2ff" stop-opacity="0"/></radialGradient>
    <radialGradient id="c" cx=".58" cy=".88" r=".48"><stop stop-color="#d7ff45"/><stop offset=".45" stop-color="#d7ff45" stop-opacity=".22"/><stop offset="1" stop-color="#d7ff45" stop-opacity="0"/></radialGradient>
    <filter id="shadow" x="-30%" y="-30%" width="160%" height="160%">
      <feDropShadow dx="0" dy="28" stdDeviation="28" flood-color="#000" flood-opacity=".34"/>
    </filter>
  </defs>
  <rect width="1600" height="1040" fill="url(#bg)"/>
  <rect width="1600" height="1040" fill="url(#a)"/>
  <rect width="1600" height="1040" fill="url(#b)"/>
  <rect width="1600" height="1040" fill="url(#c)"/>
  <g opacity=".18" fill="none" stroke="#fff" stroke-width="2">
    <path d="M120 200c260-80 430 110 650 34 250-86 380-36 710 72"/>
    <path d="M100 704c270-122 520 80 760 10 188-55 360-48 620 42"/>
    <path d="M140 896c300-80 580 50 860-14 150-34 280-28 450 22"/>
  </g>
  <g filter="url(#shadow)">
    <rect x="224" y="178" width="520" height="330" rx="42" fill="#06131d" fill-opacity=".88" stroke="#35f2ff" stroke-opacity=".48" stroke-width="3"/>
    <rect x="848" y="126" width="462" height="254" rx="38" fill="#161028" fill-opacity=".9" stroke="#ff4fd8" stroke-opacity=".52" stroke-width="3"/>
    <rect x="850" y="476" width="480" height="330" rx="42" fill="#0d1c13" fill-opacity=".9" stroke="#d7ff45" stroke-opacity=".52" stroke-width="3"/>
    <rect x="292" y="596" width="430" height="250" rx="38" fill="#1f1426" fill-opacity=".9" stroke="#ffd166" stroke-opacity=".48" stroke-width="3"/>
  </g>
  <g fill="none" stroke-linecap="round" stroke-width="12">
    <path d="M480 508v88M744 342h104M1078 380v96M850 642H722" stroke="#f7fbf7" stroke-opacity=".45"/>
    <path d="M312 386c92-156 240-158 344-30" stroke="#35f2ff"/>
    <path d="M920 252c76-72 210-76 304-10" stroke="#ff4fd8"/>
    <path d="M932 652c102-116 226-96 312 26" stroke="#d7ff45"/>
    <path d="M354 724c88-80 206-70 306 20" stroke="#ffd166"/>
  </g>
  <g>
    <circle cx="312" cy="386" r="34" fill="#35f2ff"/>
    <circle cx="656" cy="356" r="34" fill="#a9ff68"/>
    <circle cx="920" cy="252" r="34" fill="#ff4fd8"/>
    <circle cx="1224" cy="242" r="34" fill="#ffd166"/>
    <circle cx="932" cy="652" r="34" fill="#d7ff45"/>
    <circle cx="1244" cy="678" r="34" fill="#23f7d4"/>
    <circle cx="354" cy="724" r="34" fill="#ffd166"/>
    <circle cx="660" cy="744" r="34" fill="#ff7a66"/>
  </g>
  <g opacity=".82" fill="#fff">
    <rect x="296" y="242" width="168" height="13" rx="6"/>
    <rect x="296" y="286" width="322" height="13" rx="6" opacity=".6"/>
    <rect x="296" y="330" width="238" height="13" rx="6" opacity=".72"/>
    <rect x="918" y="548" width="198" height="13" rx="6"/>
    <rect x="918" y="592" width="318" height="13" rx="6" opacity=".6"/>
    <rect x="918" y="724" width="260" height="13" rx="6" opacity=".72"/>
    <rect x="362" y="656" width="180" height="13" rx="6"/>
    <rect x="362" y="786" width="250" height="13" rx="6" opacity=".64"/>
  </g>
</svg>
