<svg xmlns="http://www.w3.org/2000/svg" viewBox="0 0 320 360" role="img" aria-labelledby="title desc">
  <title id="title">PoppersGuyPH Logo</title>
  <desc id="desc">Black shield logo with white lines and PoppersGuyPH wordmark.</desc>
  <path
    d="M160 18c31 0 61 7 91 20l24 10v43c0 8 6 14 14 14h13v78c0 74-37 118-64 146-28 29-57 47-78 58-21-11-50-29-78-58-27-28-64-72-64-146v-78h13c8 0 14-6 14-14V48l24-10c30-13 60-20 91-20Z"
    fill="#111111"
    stroke="#111111"
    stroke-width="10"
    stroke-linejoin="round"
  />
  <path
    d="M160 34c28 0 56 6 83 18l18 8v34c0 14 11 25 25 25h2v64c0 69-34 109-59 135-24 25-49 41-69 51-20-10-45-26-69-51-25-26-59-66-59-135v-64h2c14 0 25-11 25-25V60l18-8c27-12 55-18 83-18Z"
    fill="none"
    stroke="#ffffff"
    stroke-width="7"
    stroke-linejoin="round"
  />
  <path d="M88 104c18-7 26-18 28-30 8 1 14 7 18 14 8-7 16-11 25-12-10 8-13 20-12 31" fill="none" stroke="#ffffff" stroke-width="3.5" stroke-linecap="round"/>
  <path d="M232 104c-18-7-26-18-28-30-8 1-14 7-18 14-8-7-16-11-25-12 10 8 13 20 12 31" fill="none" stroke="#ffffff" stroke-width="3.5" stroke-linecap="round"/>
  <path d="M72 126h176" stroke="#ffffff" stroke-width="3"/>
  <path d="M72 242h176" stroke="#ffffff" stroke-width="3"/>
  <text
    x="160"
    y="188"
    text-anchor="middle"
    font-family="Arial, Helvetica, sans-serif"
    font-size="34"
    font-weight="700"
    fill="#ffffff"
    letter-spacing="1"
  >
    POPPERSGUYPH
  </text>
  <text
    x="160"
    y="285"
    text-anchor="middle"
    font-family="Arial, Helvetica, sans-serif"
    font-size="22"
    font-weight="700"
    fill="#f4c542"
  >
    est.2025
  </text>
</svg>
